<svg width="241" height="240" viewBox="0 0 241 240" fill="none" xmlns="http://www.w3.org/2000/svg">
<path d="M0 40H20V60H0V40Z" fill="black"/>
<path d="M0 80H20V100H0V80Z" fill="black"/>
<path d="M0 120H20V140H0V120Z" fill="black"/>
<path d="M0 180H20V200H0V180Z" fill="black"/>
<path d="M0 20H20V40H0V20Z" fill="black"/>
<path d="M0 60H20V80H0V60Z" fill="black"/>
<path d="M0 100H20V120H0V100Z" fill="black"/>
<path d="M0 160H20V180H0V160Z" fill="black"/>
<path d="M0 140H20V160H0V140Z" fill="black"/>
<path d="M0 200H20V220H0V200Z" fill="black"/>
<path d="M80 0H100V20H80V0Z" fill="black"/>
<path d="M80 20H100V40H80V20Z" fill="black"/>
<path d="M80 200H100V220H80V200Z" fill="black"/>
<path d="M80 220H100V240H80V220Z" fill="black"/>
<path d="M40 0H60V20H40V0Z" fill="black"/>
<path d="M40 20H60V40H40V20Z" fill="black"/>
<path d="M40 200H60V220H40V200Z" fill="black"/>
<path d="M40 220H60V240H40V220Z" fill="black"/>
<path d="M120 0H140V20H120V0Z" fill="black"/>
<path d="M120 20H140V40H120V20Z" fill="black"/>
<path d="M120 200H140V220H120V200Z" fill="black"/>
<path d="M120 220H140V240H120V220Z" fill="black"/>
<path d="M180 0H200V20H180V0Z" fill="black"/>
<path d="M180 20H200V40H180V20Z" fill="black"/>
<path d="M180 200H200V220H180V200Z" fill="black"/>
<path d="M180 220H200V240H180V220Z" fill="black"/>
<path d="M20 0H40V20H20V0Z" fill="black"/>
<path d="M20 40H40V60H20V40Z" fill="black"/>
<path d="M20 80H40V100H20V80Z" fill="black"/>
<path d="M20 120H40V140H20V120Z" fill="black"/>
<path d="M20 180H40V200H20V180Z" fill="black"/>
<path d="M20 20H40V40H20V20Z" fill="black"/>
<path d="M20 60H40V80H20V60Z" fill="black"/>
<path d="M20 100H40V120H20V100Z" fill="black"/>
<path d="M20 160H40V180H20V160Z" fill="black"/>
<path d="M20 140H40V160H20V140Z" fill="black"/>
<path d="M20 200H40V220H20V200Z" fill="black"/>
<path d="M20 220H40V240H20V220Z" fill="black"/>
<path d="M100 0H120V20H100V0Z" fill="black"/>
<path d="M100 20H120V40H100V20Z" fill="black"/>
<path d="M100 200H120V220H100V200Z" fill="black"/>
<path d="M100 220H120V240H100V220Z" fill="black"/>
<path d="M160 0H180V20H160V0Z" fill="black"/>
<path d="M160 20H180V40H160V20Z" fill="black"/>
<path d="M160 200H180V220H160V200Z" fill="black"/>
<path d="M160 220H180V240H160V220Z" fill="black"/>
<path d="M60 0H80V20H60V0Z" fill="black"/>
<path d="M60 20H80V40H60V20Z" fill="black"/>
<path d="M60 200H80V220H60V200Z" fill="black"/>
<path d="M60 220H80V240H60V220Z" fill="black"/>
<path d="M140 0H160V20H140V0Z" fill="black"/>
<path d="M140 20H160V40H140V20Z" fill="black"/>
<path d="M140 200H160V220H140V200Z" fill="black"/>
<path d="M140 220H160V240H140V220Z" fill="black"/>
<path d="M200 200H220V220H200V200Z" fill="black"/>
<path d="M200 220H220V240H200V220Z" fill="black"/>
<path d="M240 220C240 231.046 231.046 240 220 240C208.954 240 200 231.046 200 220C200 208.954 208.954 200 220 200C231.046 200 240 208.954 240 220Z" fill="black"/>
<path d="M220 20C220 31.0457 211.046 40 200 40C188.954 40 180 31.0457 180 20C180 8.9543 188.954 0 200 0C211.046 0 220 8.9543 220 20Z" fill="black"/>
<path d="M40 20C40 31.0457 31.0457 40 20 40C8.9543 40 0 31.0457 0 20C0 8.9543 8.9543 0 20 0C31.0457 0 40 8.9543 40 20Z" fill="black"/>
<path d="M40 220C40 231.046 31.0457 240 20 240C8.9543 240 0 231.046 0 220C0 208.954 8.9543 200 20 200C31.0457 200 40 208.954 40 220Z" fill="black"/>
<path d="M182.124 42.9109L202.017 40.8489L204.079 60.7423L184.186 62.8043L182.124 42.9109Z" fill="black"/>
<path d="M186.248 82.6977L206.141 80.6357L208.203 100.529L188.31 102.591L186.248 82.6977Z" fill="black"/>
<path d="M190.372 122.485L210.265 120.423L212.327 140.316L192.434 142.378L190.372 122.485Z" fill="black"/>
<path d="M196.558 182.165L216.451 180.103L218.513 199.996L198.62 202.058L196.558 182.165Z" fill="black"/>
<path d="M180.062 23.0174L199.955 20.9554L202.017 40.8489L182.124 42.9109L180.062 23.0174Z" fill="black"/>
<path d="M184.186 62.8043L204.079 60.7423L206.141 80.6357L186.248 82.6977L184.186 62.8043Z" fill="black"/>
<path d="M188.31 102.591L208.203 100.529L210.265 120.423L190.372 122.485L188.31 102.591Z" fill="black"/>
<path d="M194.496 162.271L214.389 160.209L216.451 180.103L196.558 182.165L194.496 162.271Z" fill="black"/>
<path d="M192.434 142.378L212.327 140.316L214.389 160.209L194.496 162.271L192.434 142.378Z" fill="black"/>
<path d="M198.62 202.058L218.513 199.996L220.575 219.89L200.682 221.952L198.62 202.058Z" fill="black"/>
<path d="M202.017 40.8489L221.911 38.7868L223.973 58.6803L204.079 60.7423L202.017 40.8489Z" fill="black"/>
<path d="M206.141 80.6357L226.035 78.5738L228.097 98.4672L208.203 100.529L206.141 80.6357Z" fill="black"/>
<path d="M210.265 120.423L230.159 118.361L232.221 138.254L212.327 140.316L210.265 120.423Z" fill="black"/>
<path d="M216.451 180.103L236.345 178.041L238.407 197.934L218.513 199.996L216.451 180.103Z" fill="black"/>
<path d="M199.955 20.9554L219.849 18.8935L221.911 38.7868L202.017 40.8489L199.955 20.9554Z" fill="black"/>
<path d="M204.079 60.7423L223.973 58.6803L226.035 78.5738L206.141 80.6357L204.079 60.7423Z" fill="black"/>
<path d="M208.203 100.529L228.097 98.4672L230.159 118.361L210.265 120.423L208.203 100.529Z" fill="black"/>
<path d="M214.389 160.209L234.283 158.147L236.345 178.041L216.451 180.103L214.389 160.209Z" fill="black"/>
<path d="M212.327 140.316L232.221 138.254L234.283 158.147L214.389 160.209L212.327 140.316Z" fill="black"/>
<path d="M218.513 199.996L238.407 197.934L240.469 217.828L220.575 219.89L218.513 199.996Z" fill="black"/>
<path d="M240.469 217.828C241.607 228.814 233.624 238.644 222.637 239.783C211.65 240.922 201.82 232.938 200.682 221.952C199.543 210.965 207.526 201.135 218.513 199.996C229.5 198.857 239.33 206.841 240.469 217.828Z" fill="black"/>
</svg>
