<svg width="120" height="240" viewBox="0 0 120 240" fill="none" xmlns="http://www.w3.org/2000/svg">
<path d="M40 0H60V20H40V0Z" fill="black"/>
<path d="M40 40H60V60H40V40Z" fill="black"/>
<path d="M40 80H60V100H40V80Z" fill="black"/>
<path d="M40 120H60V140H40V120Z" fill="black"/>
<path d="M40 180H60V200H40V180Z" fill="black"/>
<path d="M40 20H60V40H40V20Z" fill="black"/>
<path d="M40 60H60V80H40V60Z" fill="black"/>
<path d="M40 100H60V120H40V100Z" fill="black"/>
<path d="M40 160H60V180H40V160Z" fill="black"/>
<path d="M40 140H60V160H40V140Z" fill="black"/>
<path d="M40 200H60V220H40V200Z" fill="black"/>
<path d="M40 220H60V240H40V220Z" fill="black"/>
<path d="M60 0H80V20H60V0Z" fill="black"/>
<path d="M60 40H80V60H60V40Z" fill="black"/>
<path d="M60 80H80V100H60V80Z" fill="black"/>
<path d="M60 120H80V140H60V120Z" fill="black"/>
<path d="M60 180H80V200H60V180Z" fill="black"/>
<path d="M60 20H80V40H60V20Z" fill="black"/>
<path d="M60 60H80V80H60V60Z" fill="black"/>
<path d="M60 100H80V120H60V100Z" fill="black"/>
<path d="M60 160H80V180H60V160Z" fill="black"/>
<path d="M60 140H80V160H60V140Z" fill="black"/>
<path d="M60 200H80V220H60V200Z" fill="black"/>
<path d="M60 220H80V240H60V220Z" fill="black"/>
<path d="M20 0H40V20H20V0Z" fill="black"/>
<path d="M20 20H40V40H20V20Z" fill="black"/>
<path d="M20 200H40V220H20V200Z" fill="black"/>
<path d="M20 220H40V240H20V220Z" fill="black"/>
<path d="M80 0H100V20H80V0Z" fill="black"/>
<path d="M80 20H100V40H80V20Z" fill="black"/>
<path d="M80 200H100V220H80V200Z" fill="black"/>
<path d="M80 220H100V240H80V220Z" fill="black"/>
<path d="M40 20C40 31.0457 31.0457 40 20 40C8.9543 40 0 31.0457 0 20C0 8.9543 8.9543 0 20 0C31.0457 0 40 8.9543 40 20Z" fill="black"/>
<path d="M120 20C120 31.0457 111.046 40 100 40C88.9543 40 80 31.0457 80 20C80 8.9543 88.9543 0 100 0C111.046 0 120 8.9543 120 20Z" fill="black"/>
<path d="M120 220C120 231.046 111.046 240 100 240C88.9543 240 80 231.046 80 220C80 208.954 88.9543 200 100 200C111.046 200 120 208.954 120 220Z" fill="black"/>
<path d="M40 220C40 231.046 31.0457 240 20 240C8.9543 240 0 231.046 0 220C0 208.954 8.9543 200 20 200C31.0457 200 40 208.954 40 220Z" fill="black"/>
</svg>
