<svg width="240" height="240" viewBox="0 0 240 240" fill="none" xmlns="http://www.w3.org/2000/svg">
<path d="M0 40H20V60H0V40Z" fill="black"/>
<path d="M0 80H20V100H0V80Z" fill="black"/>
<path d="M0 120H20V140H0V120Z" fill="black"/>
<path d="M0 180H20V200H0V180Z" fill="black"/>
<path d="M0 20H20V40H0V20Z" fill="black"/>
<path d="M0 60H20V80H0V60Z" fill="black"/>
<path d="M0 100H20V120H0V100Z" fill="black"/>
<path d="M0 160H20V180H0V160Z" fill="black"/>
<path d="M0 140H20V160H0V140Z" fill="black"/>
<path d="M0 200H20V220H0V200Z" fill="black"/>
<path d="M80 200H100V220H80V200Z" fill="black"/>
<path d="M80 220H100V240H80V220Z" fill="black"/>
<path d="M40 200H60V220H40V200Z" fill="black"/>
<path d="M40 220H60V240H40V220Z" fill="black"/>
<path d="M120 200H140V220H120V200Z" fill="black"/>
<path d="M120 220H140V240H120V220Z" fill="black"/>
<path d="M180 200H200V220H180V200Z" fill="black"/>
<path d="M180 220H200V240H180V220Z" fill="black"/>
<path d="M20 40H40V60H20V40Z" fill="black"/>
<path d="M20 80H40V100H20V80Z" fill="black"/>
<path d="M20 120H40V140H20V120Z" fill="black"/>
<path d="M20 180H40V200H20V180Z" fill="black"/>
<path d="M20 20H40V40H20V20Z" fill="black"/>
<path d="M20 60H40V80H20V60Z" fill="black"/>
<path d="M20 100H40V120H20V100Z" fill="black"/>
<path d="M20 160H40V180H20V160Z" fill="black"/>
<path d="M20 140H40V160H20V140Z" fill="black"/>
<path d="M20 200H40V220H20V200Z" fill="black"/>
<path d="M20 220H40V240H20V220Z" fill="black"/>
<path d="M100 200H120V220H100V200Z" fill="black"/>
<path d="M100 220H120V240H100V220Z" fill="black"/>
<path d="M160 200H180V220H160V200Z" fill="black"/>
<path d="M160 220H180V240H160V220Z" fill="black"/>
<path d="M60 200H80V220H60V200Z" fill="black"/>
<path d="M60 220H80V240H60V220Z" fill="black"/>
<path d="M140 200H160V220H140V200Z" fill="black"/>
<path d="M140 220H160V240H140V220Z" fill="black"/>
<path d="M200 200H220V220H200V200Z" fill="black"/>
<path d="M200 220H220V240H200V220Z" fill="black"/>
<path d="M40 20C40 31.0457 31.0457 40 20 40C8.9543 40 0 31.0457 0 20C0 8.9543 8.9543 0 20 0C31.0457 0 40 8.9543 40 20Z" fill="black"/>
<path d="M40 220C40 231.046 31.0457 240 20 240C8.9543 240 0 231.046 0 220C0 208.954 8.9543 200 20 200C31.0457 200 40 208.954 40 220Z" fill="black"/>
<path d="M240 220C240 231.046 231.046 240 220 240C208.954 240 200 231.046 200 220C200 208.954 208.954 200 220 200C231.046 200 240 208.954 240 220Z" fill="black"/>
</svg>
