<svg width="240" height="240" viewBox="0 0 240 240" fill="none" xmlns="http://www.w3.org/2000/svg">
<path d="M80 0H100V20H80V0Z" fill="black"/>
<path d="M80 20H100V40H80V20Z" fill="black"/>
<path d="M40 0H60V20H40V0Z" fill="black"/>
<path d="M40 20H60V40H40V20Z" fill="black"/>
<path d="M120 0H140V20H120V0Z" fill="black"/>
<path d="M120 100H140V120H120V100Z" fill="black"/>
<path d="M120 40H140V60H120V40Z" fill="black"/>
<path d="M120 80H140V100H120V80Z" fill="black"/>
<path d="M120 180H140V200H120V180Z" fill="black"/>
<path d="M120 20H140V40H120V20Z" fill="black"/>
<path d="M120 120H140V140H120V120Z" fill="black"/>
<path d="M120 60H140V80H120V60Z" fill="black"/>
<path d="M120 160H140V180H120V160Z" fill="black"/>
<path d="M120 200H140V220H120V200Z" fill="black"/>
<path d="M120 140H140V160H120V140Z" fill="black"/>
<path d="M180 0H200V20H180V0Z" fill="black"/>
<path d="M180 20H200V40H180V20Z" fill="black"/>
<path d="M20 0H40V20H20V0Z" fill="black"/>
<path d="M20 20H40V40H20V20Z" fill="black"/>
<path d="M100 0H120V20H100V0Z" fill="black"/>
<path d="M100 100H120V120H100V100Z" fill="black"/>
<path d="M100 40H120V60H100V40Z" fill="black"/>
<path d="M100 80H120V100H100V80Z" fill="black"/>
<path d="M100 180H120V200H100V180Z" fill="black"/>
<path d="M100 20H120V40H100V20Z" fill="black"/>
<path d="M100 120H120V140H100V120Z" fill="black"/>
<path d="M100 60H120V80H100V60Z" fill="black"/>
<path d="M100 160H120V180H100V160Z" fill="black"/>
<path d="M100 200H120V220H100V200Z" fill="black"/>
<path d="M100 140H120V160H100V140Z" fill="black"/>
<path d="M160 0H180V20H160V0Z" fill="black"/>
<path d="M160 20H180V40H160V20Z" fill="black"/>
<path d="M60 0H80V20H60V0Z" fill="black"/>
<path d="M60 20H80V40H60V20Z" fill="black"/>
<path d="M140 0H160V20H140V0Z" fill="black"/>
<path d="M140 20H160V40H140V20Z" fill="black"/>
<path d="M200 0H220V20H200V0Z" fill="black"/>
<path d="M200 20H220V40H200V20Z" fill="black"/>
<path d="M240 20C240 31.0457 231.046 40 220 40C208.954 40 200 31.0457 200 20C200 8.9543 208.954 0 220 0C231.046 0 240 8.9543 240 20Z" fill="black"/>
<path d="M140 220C140 231.046 131.046 240 120 240C108.954 240 100 231.046 100 220C100 208.954 108.954 200 120 200C131.046 200 140 208.954 140 220Z" fill="black"/>
<path d="M40 20C40 31.0457 31.0457 40 20 40C8.9543 40 0 31.0457 0 20C0 8.9543 8.9543 0 20 0C31.0457 0 40 8.9543 40 20Z" fill="black"/>
</svg>
