<svg width="240" height="240" viewBox="0 0 240 240" fill="none" xmlns="http://www.w3.org/2000/svg">
<path d="M0 40H20V60H0V40Z" fill="black"/>
<path d="M0 80H20V100H0V80Z" fill="black"/>
<path d="M0 120H20V140H0V120Z" fill="black"/>
<path d="M0 180H20V200H0V180Z" fill="black"/>
<path d="M0 20H20V40H0V20Z" fill="black"/>
<path d="M0 60H20V80H0V60Z" fill="black"/>
<path d="M0 100H20V120H0V100Z" fill="black"/>
<path d="M0 160H20V180H0V160Z" fill="black"/>
<path d="M0 140H20V160H0V140Z" fill="black"/>
<path d="M0 200H20V220H0V200Z" fill="black"/>
<path d="M20 40H40V60H20V40Z" fill="black"/>
<path d="M20 80H40V100H20V80Z" fill="black"/>
<path d="M20 120H40V140H20V120Z" fill="black"/>
<path d="M20 180H40V200H20V180Z" fill="black"/>
<path d="M20 20H40V40H20V20Z" fill="black"/>
<path d="M20 60H40V80H20V60Z" fill="black"/>
<path d="M20 100H40V120H20V100Z" fill="black"/>
<path d="M20 160H40V180H20V160Z" fill="black"/>
<path d="M20 140H40V160H20V140Z" fill="black"/>
<path d="M20 200H40V220H20V200Z" fill="black"/>
<path d="M40 20C40 31.0457 31.0457 40 20 40C8.9543 40 0 31.0457 0 20C0 8.9543 8.9543 0 20 0C31.0457 0 40 8.9543 40 20Z" fill="black"/>
<path d="M240 20C240 31.0457 231.046 40 220 40C208.954 40 200 31.0457 200 20C200 8.9543 208.954 0 220 0C231.046 0 240 8.9543 240 20Z" fill="black"/>
<path d="M133.421 78.2843L147.564 92.4264L133.421 106.569L119.279 92.4264L133.421 78.2843Z" fill="black"/>
<path d="M189.427 22.1421L203.569 36.2842L189.427 50.4264L175.284 36.2842L189.427 22.1421Z" fill="black"/>
<path d="M105.137 106.569L119.279 120.711L105.137 134.853L90.9948 120.711L105.137 106.569Z" fill="black"/>
<path d="M161.142 50.4264L175.284 64.5685L161.142 78.7107L147 64.5685L161.142 50.4264Z" fill="black"/>
<path d="M76.8528 134.853L90.9949 148.995L76.8528 163.137L62.7106 148.995L76.8528 134.853Z" fill="black"/>
<path d="M34.4263 177.279L48.5684 191.421L34.4263 205.564L20.2841 191.421L34.4263 177.279Z" fill="black"/>
<path d="M147.563 64.1422L161.706 78.2843L147.564 92.4264L133.421 78.2843L147.563 64.1422Z" fill="black"/>
<path d="M203.569 8L217.711 22.1421L203.569 36.2842L189.427 22.1421L203.569 8Z" fill="black"/>
<path d="M119.279 92.4264L133.421 106.569L119.279 120.711L105.137 106.569L119.279 92.4264Z" fill="black"/>
<path d="M175.284 36.2842L189.427 50.4264L175.284 64.5685L161.142 50.4264L175.284 36.2842Z" fill="black"/>
<path d="M90.9948 120.711L105.137 134.853L90.9949 148.995L76.8528 134.853L90.9948 120.711Z" fill="black"/>
<path d="M48.5686 163.137L62.7107 177.279L48.5684 191.421L34.4263 177.279L48.5686 163.137Z" fill="black"/>
<path d="M62.7106 148.995L76.8528 163.137L62.7107 177.279L48.5686 163.137L62.7106 148.995Z" fill="black"/>
<path d="M20.2841 191.421L34.4263 205.564L20.2842 219.706L6.14204 205.564L20.2841 191.421Z" fill="black"/>
<path d="M147.564 92.4264L161.706 106.569L147.563 120.711L133.421 106.569L147.564 92.4264Z" fill="black"/>
<path d="M203.569 36.2842L217.711 50.4264L203.569 64.5686L189.427 50.4264L203.569 36.2842Z" fill="black"/>
<path d="M119.279 120.711L133.421 134.853L119.279 148.995L105.137 134.853L119.279 120.711Z" fill="black"/>
<path d="M175.284 64.5685L189.426 78.7106L175.284 92.8528L161.142 78.7107L175.284 64.5685Z" fill="black"/>
<path d="M90.9949 148.995L105.137 163.137L90.9949 177.279L76.8528 163.137L90.9949 148.995Z" fill="black"/>
<path d="M48.5684 191.421L62.7107 205.564L48.5686 219.706L34.4263 205.564L48.5684 191.421Z" fill="black"/>
<path d="M161.706 78.2843L175.848 92.4264L161.706 106.569L147.564 92.4264L161.706 78.2843Z" fill="black"/>
<path d="M217.711 22.1421L231.853 36.2842L217.711 50.4264L203.569 36.2842L217.711 22.1421Z" fill="black"/>
<path d="M133.421 106.569L147.563 120.711L133.421 134.853L119.279 120.711L133.421 106.569Z" fill="black"/>
<path d="M189.427 50.4264L203.569 64.5686L189.426 78.7106L175.284 64.5685L189.427 50.4264Z" fill="black"/>
<path d="M105.137 134.853L119.279 148.995L105.137 163.137L90.9949 148.995L105.137 134.853Z" fill="black"/>
<path d="M62.7107 177.279L76.8528 191.421L62.7107 205.564L48.5684 191.421L62.7107 177.279Z" fill="black"/>
<path d="M76.8528 163.137L90.9949 177.279L76.8528 191.421L62.7107 177.279L76.8528 163.137Z" fill="black"/>
<path d="M34.4263 205.564L48.5686 219.706L34.4263 233.848L20.2842 219.706L34.4263 205.564Z" fill="black"/>
<path d="M40 220C40 231.046 31.0457 240 20 240C8.9543 240 0 231.046 0 220C0 208.954 8.9543 200 20 200C31.0457 200 40 208.954 40 220Z" fill="black"/>
</svg>
