<svg width="240" height="240" viewBox="0 0 240 240" fill="none" xmlns="http://www.w3.org/2000/svg">
<path d="M0 40H20V60H0V40Z" fill="black"/>
<path d="M0 80H20V100H0V80Z" fill="black"/>
<path d="M0 20H20V40H0V20Z" fill="black"/>
<path d="M0 60H20V80H0V60Z" fill="black"/>
<path d="M0 100H20V120H0V100Z" fill="black"/>
<path d="M80 120H100V140H80V120Z" fill="black"/>
<path d="M80 100H100V120H80V100Z" fill="black"/>
<path d="M80 200H100V220H80V200Z" fill="black"/>
<path d="M80 220H100V240H80V220Z" fill="black"/>
<path d="M40 120H60V140H40V120Z" fill="black"/>
<path d="M40 100H60V120H40V100Z" fill="black"/>
<path d="M40 200H60V220H40V200Z" fill="black"/>
<path d="M40 220H60V240H40V220Z" fill="black"/>
<path d="M120 120H140V140H120V120Z" fill="black"/>
<path d="M120 100H140V120H120V100Z" fill="black"/>
<path d="M120 200H140V220H120V200Z" fill="black"/>
<path d="M120 220H140V240H120V220Z" fill="black"/>
<path d="M180 120H200V140H180V120Z" fill="black"/>
<path d="M180 100H200V120H180V100Z" fill="black"/>
<path d="M180 200H200V220H180V200Z" fill="black"/>
<path d="M180 220H200V240H180V220Z" fill="black"/>
<path d="M20 40H40V60H20V40Z" fill="black"/>
<path d="M20 80H40V100H20V80Z" fill="black"/>
<path d="M20 120H40V140H20V120Z" fill="black"/>
<path d="M20 20H40V40H20V20Z" fill="black"/>
<path d="M20 60H40V80H20V60Z" fill="black"/>
<path d="M20 100H40V120H20V100Z" fill="black"/>
<path d="M20 200H40V220H20V200Z" fill="black"/>
<path d="M20 220H40V240H20V220Z" fill="black"/>
<path d="M100 120H120V140H100V120Z" fill="black"/>
<path d="M100 100H120V120H100V100Z" fill="black"/>
<path d="M100 200H120V220H100V200Z" fill="black"/>
<path d="M100 220H120V240H100V220Z" fill="black"/>
<path d="M160 120H180V140H160V120Z" fill="black"/>
<path d="M160 100H180V120H160V100Z" fill="black"/>
<path d="M160 200H180V220H160V200Z" fill="black"/>
<path d="M160 220H180V240H160V220Z" fill="black"/>
<path d="M60 120H80V140H60V120Z" fill="black"/>
<path d="M60 100H80V120H60V100Z" fill="black"/>
<path d="M60 200H80V220H60V200Z" fill="black"/>
<path d="M60 220H80V240H60V220Z" fill="black"/>
<path d="M140 120H160V140H140V120Z" fill="black"/>
<path d="M140 100H160V120H140V100Z" fill="black"/>
<path d="M140 200H160V220H140V200Z" fill="black"/>
<path d="M140 220H160V240H140V220Z" fill="black"/>
<path d="M200 40H220V60H200V40Z" fill="black"/>
<path d="M200 80H220V100H200V80Z" fill="black"/>
<path d="M200 120H220V140H200V120Z" fill="black"/>
<path d="M200 180H220V200H200V180Z" fill="black"/>
<path d="M200 20H220V40H200V20Z" fill="black"/>
<path d="M200 60H220V80H200V60Z" fill="black"/>
<path d="M200 100H220V120H200V100Z" fill="black"/>
<path d="M200 160H220V180H200V160Z" fill="black"/>
<path d="M200 140H220V160H200V140Z" fill="black"/>
<path d="M200 200H220V220H200V200Z" fill="black"/>
<path d="M200 220H220V240H200V220Z" fill="black"/>
<path d="M220 40H240V60H220V40Z" fill="black"/>
<path d="M220 80H240V100H220V80Z" fill="black"/>
<path d="M220 120H240V140H220V120Z" fill="black"/>
<path d="M220 180H240V200H220V180Z" fill="black"/>
<path d="M220 20H240V40H220V20Z" fill="black"/>
<path d="M220 60H240V80H220V60Z" fill="black"/>
<path d="M220 100H240V120H220V100Z" fill="black"/>
<path d="M220 160H240V180H220V160Z" fill="black"/>
<path d="M220 140H240V160H220V140Z" fill="black"/>
<path d="M220 200H240V220H220V200Z" fill="black"/>
<path d="M240 20C240 31.0457 231.046 40 220 40C208.954 40 200 31.0457 200 20C200 8.9543 208.954 0 220 0C231.046 0 240 8.9543 240 20Z" fill="black"/>
<path d="M40 20C40 31.0457 31.0457 40 20 40C8.9543 40 0 31.0457 0 20C0 8.9543 8.9543 0 20 0C31.0457 0 40 8.9543 40 20Z" fill="black"/>
<path d="M40 220C40 231.046 31.0457 240 20 240C8.9543 240 0 231.046 0 220C0 208.954 8.9543 200 20 200C31.0457 200 40 208.954 40 220Z" fill="black"/>
<path d="M40 119C40 130.046 31.0457 139 20 139C8.9543 139 0 130.046 0 119C0 107.954 8.9543 99 20 99C31.0457 99 40 107.954 40 119Z" fill="black"/>
<path d="M240 220C240 231.046 231.046 240 220 240C208.954 240 200 231.046 200 220C200 208.954 208.954 200 220 200C231.046 200 240 208.954 240 220Z" fill="black"/>
</svg>
