<?xml version="1.0" encoding="utf-8"?>
<!-- Generator: Adobe Illustrator 24.0.2, SVG Export Plug-In . SVG Version: 6.00 Build 0)  -->
<svg version="1.1" id="Layer_1" xmlns="http://www.w3.org/2000/svg" xmlns:xlink="http://www.w3.org/1999/xlink" x="0px" y="0px"
	 viewBox="0 0 240 240" style="enable-background:new 0 0 240 240;" xml:space="preserve">
<path d="M40,20.1c-0.3-12.1-9.3-20-20-20c-11.4,0-20,8.8-20,20l0-0.2v200c0,10,9.1,20,20,20c11.4,0,20-10,20-20v-200"/>
<path d="M240,20.1c-0.3-12.1-9.3-20-20-20c-11.4,0-20,8.8-20,20v-0.2v200c0,10,9.1,20,20,20c11.4,0,20-10,20-20v-200"/>
<path d="M20,100c-12.1,0.3-20,9.3-20,20c0,11.4,8.8,20,20,20h-0.2h200c10,0,20-9.1,20-20c0-11.4-10-20-20-20h-200"/>
<path d="M219.8,40c12.1-0.3,20-9.3,20-20c0-11.4-8.8-20-20-20l0.2,0H20C10,0,0,9.1,0,20c0,11.4,10,20,20,20h200"/>
</svg>
