<?xml version="1.0" encoding="utf-8"?>
<!-- Generator: Adobe Illustrator 24.0.2, SVG Export Plug-In . SVG Version: 6.00 Build 0)  -->
<svg version="1.1" id="Layer_1" xmlns="http://www.w3.org/2000/svg" xmlns:xlink="http://www.w3.org/1999/xlink" x="0px" y="0px"
	 viewBox="0 0 240 240" style="enable-background:new 0 0 240 240;" xml:space="preserve">
<path d="M220,240V0H20v240H220z"/>
<path d="M0,220h240V20H0V220z"/>
<path d="M20,200c-11,0-20,9-20,20s9,20,20,20s20-9,20-20S31,200,20,200z"/>
<path d="M220,200c-11,0-20,9-20,20s9,20,20,20s20-9,20-20S231,200,220,200z"/>
<path d="M220,0c-11,0-20,9-20,20s9,20,20,20s20-9,20-20S231,0,220,0z"/>
<path d="M20,0C9,0,0,9,0,20s9,20,20,20s20-9,20-20S31,0,20,0z"/>
</svg>
