<svg width="240" height="240" viewBox="0 0 240 240" fill="none" xmlns="http://www.w3.org/2000/svg">
<path d="M200 0H220V20H200V0Z" fill="black"/>
<path d="M180 40H200V60H180V40Z" fill="black"/>
<path d="M180 80H200V100H180V80Z" fill="black"/>
<path d="M180 120H200V140H180V120Z" fill="black"/>
<path d="M180 180H200V200H180V180Z" fill="black"/>
<path d="M200 20H220V40H200V20Z" fill="black"/>
<path d="M180 60H200V80H180V60Z" fill="black"/>
<path d="M180 100H200V120H180V100Z" fill="black"/>
<path d="M180 160H200V180H180V160Z" fill="black"/>
<path d="M180 140H200V160H180V140Z" fill="black"/>
<path d="M200 200H220V220H200V200Z" fill="black"/>
<path d="M80 0H100V20H80V0Z" fill="black"/>
<path d="M80 20H100V40H80V20Z" fill="black"/>
<path d="M80 200H100V220H80V200Z" fill="black"/>
<path d="M80 220H100V240H80V220Z" fill="black"/>
<path d="M40 0H60V20H40V0Z" fill="black"/>
<path d="M40 20H60V40H40V20Z" fill="black"/>
<path d="M120 0H140V20H120V0Z" fill="black"/>
<path d="M120 20H140V40H120V20Z" fill="black"/>
<path d="M120 200H140V220H120V200Z" fill="black"/>
<path d="M120 220H140V240H120V220Z" fill="black"/>
<path d="M180 0H200V20H180V0Z" fill="black"/>
<path d="M180 20H200V40H180V20Z" fill="black"/>
<path d="M180 200H200V220H180V200Z" fill="black"/>
<path d="M180 220H200V240H180V220Z" fill="black"/>
<path d="M20 0H40V20H20V0Z" fill="black"/>
<path d="M200 40H220V60H200V40Z" fill="black"/>
<path d="M200 80H220V100H200V80Z" fill="black"/>
<path d="M200 120H220V140H200V120Z" fill="black"/>
<path d="M200 180H220V200H200V180Z" fill="black"/>
<path d="M20 20H40V40H20V20Z" fill="black"/>
<path d="M200 60H220V80H200V60Z" fill="black"/>
<path d="M200 100H220V120H200V100Z" fill="black"/>
<path d="M200 160H220V180H200V160Z" fill="black"/>
<path d="M200 140H220V160H200V140Z" fill="black"/>
<path d="M100 0H120V20H100V0Z" fill="black"/>
<path d="M100 20H120V40H100V20Z" fill="black"/>
<path d="M100 200H120V220H100V200Z" fill="black"/>
<path d="M100 220H120V240H100V220Z" fill="black"/>
<path d="M160 0H180V20H160V0Z" fill="black"/>
<path d="M160 20H180V40H160V20Z" fill="black"/>
<path d="M160 200H180V220H160V200Z" fill="black"/>
<path d="M160 220H180V240H160V220Z" fill="black"/>
<path d="M60 0H80V20H60V0Z" fill="black"/>
<path d="M60 20H80V40H60V20Z" fill="black"/>
<path d="M60 200H80V220H60V200Z" fill="black"/>
<path d="M60 220H80V240H60V220Z" fill="black"/>
<path d="M140 0H160V20H140V0Z" fill="black"/>
<path d="M140 20H160V40H140V20Z" fill="black"/>
<path d="M140 200H160V220H140V200Z" fill="black"/>
<path d="M140 220H160V240H140V220Z" fill="black"/>
<path d="M40 20C40 31.0457 31.0457 40 20 40C8.9543 40 0 31.0457 0 20C0 8.9543 8.9543 0 20 0C31.0457 0 40 8.9543 40 20Z" fill="black"/>
<path d="M240 20C240 31.0457 231.046 40 220 40C208.954 40 200 31.0457 200 20C200 8.9543 208.954 0 220 0C231.046 0 240 8.9543 240 20Z" fill="black"/>
<path d="M80 220C80 231.046 71.0457 240 60 240C48.9543 240 40 231.046 40 220C40 208.954 48.9543 200 60 200C71.0457 200 80 208.954 80 220Z" fill="black"/>
<path d="M220 220C220 231.046 211.046 240 200 240C188.954 240 180 231.046 180 220C180 208.954 188.954 200 200 200C211.046 200 220 208.954 220 220Z" fill="black"/>
</svg>
