<svg width="240" height="240" viewBox="0 0 240 240" fill="none" xmlns="http://www.w3.org/2000/svg">
<path d="M20 200H40V220H20V200Z" fill="black"/>
<path d="M240 20C240 31.0457 231.046 40 220 40C208.954 40 200 31.0457 200 20C200 8.9543 208.954 8.74228e-07 220 8.74228e-07C231.046 8.74228e-07 240 8.9543 240 20Z" fill="black"/>
<path d="M20 0C31.0457 -4.82823e-07 40 8.95431 40 20C40 31.0457 31.0457 40 20 40C8.9543 40 4.82823e-07 31.0457 0 20C-4.82823e-07 8.95431 8.9543 4.82823e-07 20 0Z" fill="black"/>
<path d="M133.421 78.2843L147.564 92.4264L133.421 106.569L119.279 92.4264L133.421 78.2843Z" fill="black"/>
<path d="M78.2842 106.579L92.4263 92.4366L106.568 106.579L92.4263 120.721L78.2842 106.579Z" fill="black"/>
<path d="M189.426 22.1421L203.568 36.2842L189.426 50.4264L175.284 36.2842L189.426 22.1421Z" fill="black"/>
<path d="M22.1421 50.5736L36.2842 36.4315L50.4264 50.5736L36.2842 64.7157L22.1421 50.5736Z" fill="black"/>
<path d="M105.137 106.569L119.279 120.711L105.137 134.853L90.9951 120.711L105.137 106.569Z" fill="black"/>
<path d="M106.569 134.863L120.711 120.721L134.853 134.863L120.711 149.005L106.569 134.863Z" fill="black"/>
<path d="M161.142 50.4264L175.284 64.5685L161.142 78.7107L147 64.5685L161.142 50.4264Z" fill="black"/>
<path d="M50.4263 78.8579L64.5684 64.7158L78.7105 78.8579L64.5684 93L50.4263 78.8579Z" fill="black"/>
<path d="M76.8528 134.853L90.9949 148.995L76.8528 163.137L62.7106 148.995L76.8528 134.853Z" fill="black"/>
<path d="M134.853 163.147L148.995 149.005L163.137 163.147L148.995 177.289L134.853 163.147Z" fill="black"/>
<path d="M34.4263 177.279L48.5684 191.421L34.4263 205.564L20.2841 191.421L34.4263 177.279Z" fill="black"/>
<path d="M177.279 205.574L191.421 191.431L205.564 205.574L191.421 219.716L177.279 205.574Z" fill="black"/>
<path d="M147.563 64.1422L161.706 78.2843L147.564 92.4264L133.421 78.2843L147.563 64.1422Z" fill="black"/>
<path d="M64.1421 92.4365L78.2842 78.2944L92.4263 92.4366L78.2842 106.579L64.1421 92.4365Z" fill="black"/>
<path d="M203.569 8L217.711 22.1421L203.568 36.2842L189.426 22.1421L203.569 8Z" fill="black"/>
<path d="M8 36.4315L22.1421 22.2894L36.2842 36.4315L22.1421 50.5736L8 36.4315Z" fill="black"/>
<path d="M119.279 92.4264L133.421 106.569L119.279 120.711L105.137 106.569L119.279 92.4264Z" fill="black"/>
<path d="M92.4263 120.721L106.568 106.579L120.711 120.721L106.569 134.863L92.4263 120.721Z" fill="black"/>
<path d="M175.284 36.2842L189.426 50.4264L175.284 64.5685L161.142 50.4264L175.284 36.2842Z" fill="black"/>
<path d="M36.2842 64.7157L50.4264 50.5736L64.5684 64.7158L50.4263 78.8579L36.2842 64.7157Z" fill="black"/>
<path d="M90.9951 120.711L105.137 134.853L90.9949 148.995L76.8528 134.853L90.9951 120.711Z" fill="black"/>
<path d="M120.711 149.005L134.853 134.863L148.995 149.005L134.853 163.147L120.711 149.005Z" fill="black"/>
<path d="M48.5686 163.137L62.7107 177.279L48.5684 191.421L34.4263 177.279L48.5686 163.137Z" fill="black"/>
<path d="M163.137 191.431L177.279 177.289L191.421 191.431L177.279 205.574L163.137 191.431Z" fill="black"/>
<path d="M62.7106 148.995L76.8528 163.137L62.7107 177.279L48.5686 163.137L62.7106 148.995Z" fill="black"/>
<path d="M148.995 177.289L163.137 163.147L177.279 177.289L163.137 191.431L148.995 177.289Z" fill="black"/>
<path d="M20.2841 191.421L34.4263 205.564L20.2842 219.706L6.14205 205.564L20.2841 191.421Z" fill="black"/>
<path d="M191.421 219.716L205.564 205.574L219.706 219.716L205.564 233.858L191.421 219.716Z" fill="black"/>
<path d="M147.564 92.4264L161.706 106.569L147.563 120.711L133.421 106.569L147.564 92.4264Z" fill="black"/>
<path d="M92.4263 92.4366L106.569 78.2944L120.711 92.4365L106.568 106.579L92.4263 92.4366Z" fill="black"/>
<path d="M203.568 36.2842L217.711 50.4264L203.569 64.5686L189.426 50.4264L203.568 36.2842Z" fill="black"/>
<path d="M36.2842 36.4315L50.4263 22.2894L64.5685 36.4315L50.4264 50.5736L36.2842 36.4315Z" fill="black"/>
<path d="M119.279 120.711L133.421 134.853L119.279 148.995L105.137 134.853L119.279 120.711Z" fill="black"/>
<path d="M120.711 120.721L134.853 106.579L148.995 120.721L134.853 134.863L120.711 120.721Z" fill="black"/>
<path d="M175.284 64.5685L189.426 78.7106L175.284 92.8528L161.142 78.7107L175.284 64.5685Z" fill="black"/>
<path d="M64.5684 64.7158L78.7105 50.5736L92.8526 64.7157L78.7105 78.8579L64.5684 64.7158Z" fill="black"/>
<path d="M90.9949 148.995L105.137 163.137L90.9949 177.279L76.8528 163.137L90.9949 148.995Z" fill="black"/>
<path d="M148.995 149.005L163.137 134.863L177.279 149.005L163.137 163.147L148.995 149.005Z" fill="black"/>
<path d="M48.5684 191.421L62.7107 205.564L48.5686 219.706L34.4263 205.564L48.5684 191.421Z" fill="black"/>
<path d="M191.421 191.431L205.564 177.289L219.706 191.431L205.564 205.574L191.421 191.431Z" fill="black"/>
<path d="M161.706 78.2843L175.848 92.4264L161.706 106.569L147.564 92.4264L161.706 78.2843Z" fill="black"/>
<path d="M78.2842 78.2944L92.4263 64.1523L106.569 78.2944L92.4263 92.4366L78.2842 78.2944Z" fill="black"/>
<path d="M217.711 22.1421L231.853 36.2842L217.711 50.4264L203.568 36.2842L217.711 22.1421Z" fill="black"/>
<path d="M22.1421 22.2894L36.2842 8.14717L50.4263 22.2894L36.2842 36.4315L22.1421 22.2894Z" fill="black"/>
<path d="M133.421 106.569L147.563 120.711L133.421 134.853L119.279 120.711L133.421 106.569Z" fill="black"/>
<path d="M106.568 106.579L120.711 92.4365L134.853 106.579L120.711 120.721L106.568 106.579Z" fill="black"/>
<path d="M189.426 50.4264L203.569 64.5686L189.426 78.7106L175.284 64.5685L189.426 50.4264Z" fill="black"/>
<path d="M50.4264 50.5736L64.5685 36.4315L78.7105 50.5736L64.5684 64.7158L50.4264 50.5736Z" fill="black"/>
<path d="M105.137 134.853L119.279 148.995L105.137 163.137L90.9949 148.995L105.137 134.853Z" fill="black"/>
<path d="M134.853 134.863L148.995 120.721L163.137 134.863L148.995 149.005L134.853 134.863Z" fill="black"/>
<path d="M62.7107 177.279L76.8528 191.421L62.7107 205.564L48.5684 191.421L62.7107 177.279Z" fill="black"/>
<path d="M177.279 177.289L191.421 163.147L205.564 177.289L191.421 191.431L177.279 177.289Z" fill="black"/>
<path d="M76.8528 163.137L90.9949 177.279L76.8528 191.421L62.7107 177.279L76.8528 163.137Z" fill="black"/>
<path d="M163.137 163.147L177.279 149.005L191.421 163.147L177.279 177.289L163.137 163.147Z" fill="black"/>
<path d="M34.4263 205.564L48.5686 219.706L34.4263 233.848L20.2842 219.706L34.4263 205.564Z" fill="black"/>
<path d="M205.564 205.574L219.706 191.431L233.848 205.574L219.706 219.716L205.564 205.574Z" fill="black"/>
<path d="M40 220C40 231.046 31.0457 240 20 240C8.9543 240 8.74228e-07 231.046 8.74228e-07 220C8.74228e-07 208.954 8.9543 200 20 200C31.0457 200 40 208.954 40 220Z" fill="black"/>
<path d="M220 200C231.046 200 240 208.954 240 220C240 231.046 231.046 240 220 240C208.954 240 200 231.046 200 220C200 208.954 208.954 200 220 200Z" fill="black"/>
</svg>
