<svg width="240" height="240" viewBox="0 0 240 240" fill="none" xmlns="http://www.w3.org/2000/svg">
<path d="M200 240V220H180V240H200Z" fill="black"/>
<path d="M160 240V220H140V240H160Z" fill="black"/>
<path d="M120 240V220H100V240H120Z" fill="black"/>
<path d="M60 240V220H40V240H60Z" fill="black"/>
<path d="M220 240V220L200 220V240L220 240Z" fill="black"/>
<path d="M180 240V220H160V240H180Z" fill="black"/>
<path d="M140 240V220H120V240H140Z" fill="black"/>
<path d="M80 240V220H60V240H80Z" fill="black"/>
<path d="M100 240V220H80V240H100Z" fill="black"/>
<path d="M40 240V220H20V240H40Z" fill="black"/>
<path d="M200 220V200H180V220H200Z" fill="black"/>
<path d="M160 220V200H140V220H160Z" fill="black"/>
<path d="M120 220V200H100V220H120Z" fill="black"/>
<path d="M60 220V200H40V220H60Z" fill="black"/>
<path d="M220 220V200L200 200V220L220 220Z" fill="black"/>
<path d="M180 220V200H160V220H180Z" fill="black"/>
<path d="M140 220V200H120V220H140Z" fill="black"/>
<path d="M80 220V200H60V220H80Z" fill="black"/>
<path d="M100 220V200H80V220H100Z" fill="black"/>
<path d="M40 220V200H20V220H40Z" fill="black"/>
<path d="M220 200C208.954 200 200 208.954 200 220C200 231.046 208.954 240 220 240C231.046 240 240 231.046 240 220C240 208.954 231.046 200 220 200Z" fill="black"/>
<path d="M220 7.86805e-06C208.954 7.38523e-06 200 8.95431 200 20C200 31.0457 208.954 40 220 40C231.046 40 240 31.0457 240 20C240 8.95432 231.046 8.35087e-06 220 7.86805e-06Z" fill="black"/>
<path d="M161.716 106.579L147.574 92.4365L133.431 106.579L147.574 120.721L161.716 106.579Z" fill="black"/>
<path d="M217.858 50.5735L203.716 36.4314L189.574 50.5735L203.716 64.7156L217.858 50.5735Z" fill="black"/>
<path d="M133.431 134.863L119.289 120.721L105.147 134.863L119.289 149.005L133.431 134.863Z" fill="black"/>
<path d="M189.574 78.8579L175.431 64.7158L161.289 78.8579L175.431 93.0001L189.574 78.8579Z" fill="black"/>
<path d="M105.147 163.147L91.005 149.005L76.8628 163.147L91.005 177.289L105.147 163.147Z" fill="black"/>
<path d="M62.7207 205.574L48.5786 191.432L34.4364 205.574L48.5786 219.716L62.7207 205.574Z" fill="black"/>
<path d="M175.858 92.4365L161.716 78.2944L147.574 92.4365L161.716 106.579L175.858 92.4365Z" fill="black"/>
<path d="M232 36.4314L217.858 22.2893L203.716 36.4314L217.858 50.5735L232 36.4314Z" fill="black"/>
<path d="M147.574 120.721L133.431 106.579L119.289 120.721L133.431 134.863L147.574 120.721Z" fill="black"/>
<path d="M203.716 64.7156L189.574 50.5735L175.431 64.7158L189.574 78.8579L203.716 64.7156Z" fill="black"/>
<path d="M119.289 149.005L105.147 134.863L91.005 149.005L105.147 163.147L119.289 149.005Z" fill="black"/>
<path d="M76.8629 191.431L62.7208 177.289L48.5786 191.432L62.7207 205.574L76.8629 191.431Z" fill="black"/>
<path d="M91.005 177.289L76.8628 163.147L62.7208 177.289L76.8629 191.431L91.005 177.289Z" fill="black"/>
<path d="M48.5786 219.716L34.4364 205.574L20.2943 219.716L34.4365 233.858L48.5786 219.716Z" fill="black"/>
<path d="M147.574 92.4365L133.431 78.2944L119.289 92.4365L133.431 106.579L147.574 92.4365Z" fill="black"/>
<path d="M203.716 36.4314L189.574 22.2893L175.431 36.4314L189.574 50.5735L203.716 36.4314Z" fill="black"/>
<path d="M119.289 120.721L105.147 106.579L91.005 120.721L105.147 134.863L119.289 120.721Z" fill="black"/>
<path d="M175.431 64.7158L161.289 50.5737L147.147 64.7158L161.289 78.8579L175.431 64.7158Z" fill="black"/>
<path d="M91.005 149.005L76.8629 134.863L62.7207 149.005L76.8628 163.147L91.005 149.005Z" fill="black"/>
<path d="M48.5786 191.432L34.4365 177.289L20.2943 191.431L34.4364 205.574L48.5786 191.432Z" fill="black"/>
<path d="M161.716 78.2944L147.574 64.1523L133.431 78.2944L147.574 92.4365L161.716 78.2944Z" fill="black"/>
<path d="M217.858 22.2893L203.716 8.14718L189.574 22.2893L203.716 36.4314L217.858 22.2893Z" fill="black"/>
<path d="M133.431 106.579L119.289 92.4365L105.147 106.579L119.289 120.721L133.431 106.579Z" fill="black"/>
<path d="M189.574 50.5735L175.431 36.4314L161.289 50.5737L175.431 64.7158L189.574 50.5735Z" fill="black"/>
<path d="M105.147 134.863L91.005 120.721L76.8629 134.863L91.005 149.005L105.147 134.863Z" fill="black"/>
<path d="M62.7208 177.289L48.5786 163.147L34.4365 177.289L48.5786 191.432L62.7208 177.289Z" fill="black"/>
<path d="M76.8628 163.147L62.7207 149.005L48.5786 163.147L62.7208 177.289L76.8628 163.147Z" fill="black"/>
<path d="M34.4364 205.574L20.2943 191.431L6.15225 205.574L20.2943 219.716L34.4364 205.574Z" fill="black"/>
<path d="M20 200C8.95431 200 4.82823e-07 208.954 0 220C-4.82823e-07 231.046 8.95431 240 20 240C31.0457 240 40 231.046 40 220C40 208.954 31.0457 200 20 200Z" fill="black"/>
<path d="M40 6.99382e-06V20L60 20V6.11959e-06L40 6.99382e-06Z" fill="black"/>
<path d="M80 5.24537e-06V20L100 20V4.37114e-06L80 5.24537e-06Z" fill="black"/>
<path d="M120 3.49691e-06V20L140 20V2.62268e-06L120 3.49691e-06Z" fill="black"/>
<path d="M180 8.74228e-07V20L200 20L200 0L180 8.74228e-07Z" fill="black"/>
<path d="M20 7.86805e-06V20H40V6.99382e-06L20 7.86805e-06Z" fill="black"/>
<path d="M60 6.11959e-06V20H80V5.24537e-06L60 6.11959e-06Z" fill="black"/>
<path d="M100 4.37114e-06V20H120V3.49691e-06L100 4.37114e-06Z" fill="black"/>
<path d="M160 1.74846e-06V20L180 20V8.74228e-07L160 1.74846e-06Z" fill="black"/>
<path d="M140 2.62268e-06V20H160V1.74846e-06L140 2.62268e-06Z" fill="black"/>
<path d="M200 0L200 20L220 20L220 7.86805e-06L200 0Z" fill="black"/>
<path d="M40 20V40H60V20L40 20Z" fill="black"/>
<path d="M80 20V40H100V20L80 20Z" fill="black"/>
<path d="M120 20V40H140V20L120 20Z" fill="black"/>
<path d="M180 20V40H200L200 20L180 20Z" fill="black"/>
<path d="M20 20V40H40V20H20Z" fill="black"/>
<path d="M60 20V40L80 40V20H60Z" fill="black"/>
<path d="M100 20V40H120V20H100Z" fill="black"/>
<path d="M160 20V40H180V20L160 20Z" fill="black"/>
<path d="M140 20V40L160 40V20H140Z" fill="black"/>
<path d="M200 20L200 40L220 40L220 20L200 20Z" fill="black"/>
<path d="M20 40C31.0457 40 40 31.0457 40 20C40 8.95431 31.0457 7.38523e-06 20 7.86805e-06C8.9543 8.35087e-06 -4.82823e-07 8.95431 0 20C4.82823e-07 31.0457 8.9543 40 20 40Z" fill="black"/>
<path d="M20 240C31.0457 240 40 231.046 40 220C40 208.954 31.0457 200 20 200C8.95431 200 4.82823e-07 208.954 0 220C-4.82823e-07 231.046 8.95431 240 20 240Z" fill="black"/>
<path d="M78.2843 133.421L92.4264 147.564L106.569 133.421L92.4264 119.279L78.2843 133.421Z" fill="black"/>
<path d="M22.1421 189.427L36.2842 203.569L50.4264 189.427L36.2842 175.284L22.1421 189.427Z" fill="black"/>
<path d="M106.569 105.137L120.711 119.279L134.853 105.137L120.711 90.9948L106.569 105.137Z" fill="black"/>
<path d="M50.4264 161.142L64.5685 175.284L78.7107 161.142L64.5685 147L50.4264 161.142Z" fill="black"/>
<path d="M134.853 76.8528L148.995 90.9949L163.137 76.8528L148.995 62.7107L134.853 76.8528Z" fill="black"/>
<path d="M177.279 34.4263L191.421 48.5684L205.564 34.4263L191.421 20.2841L177.279 34.4263Z" fill="black"/>
<path d="M64.1422 147.563L78.2844 161.706L92.4264 147.564L78.2843 133.421L64.1422 147.563Z" fill="black"/>
<path d="M8.00001 203.569L22.1421 217.711L36.2842 203.569L22.1421 189.427L8.00001 203.569Z" fill="black"/>
<path d="M92.4264 119.279L106.569 133.421L120.711 119.279L106.569 105.137L92.4264 119.279Z" fill="black"/>
<path d="M36.2842 175.284L50.4264 189.427L64.5685 175.284L50.4264 161.142L36.2842 175.284Z" fill="black"/>
<path d="M120.711 90.9948L134.853 105.137L148.995 90.9949L134.853 76.8528L120.711 90.9948Z" fill="black"/>
<path d="M163.137 48.5686L177.279 62.7107L191.421 48.5684L177.279 34.4263L163.137 48.5686Z" fill="black"/>
<path d="M148.995 62.7107L163.137 76.8528L177.279 62.7107L163.137 48.5686L148.995 62.7107Z" fill="black"/>
<path d="M191.421 20.2841L205.564 34.4263L219.706 20.2842L205.564 6.14204L191.421 20.2841Z" fill="black"/>
<path d="M92.4264 147.564L106.569 161.706L120.711 147.563L106.569 133.421L92.4264 147.564Z" fill="black"/>
<path d="M36.2842 203.569L50.4264 217.711L64.5686 203.569L50.4264 189.427L36.2842 203.569Z" fill="black"/>
<path d="M120.711 119.279L134.853 133.421L148.995 119.279L134.853 105.137L120.711 119.279Z" fill="black"/>
<path d="M64.5685 175.284L78.7106 189.426L92.8528 175.284L78.7107 161.142L64.5685 175.284Z" fill="black"/>
<path d="M148.995 90.9949L163.137 105.137L177.279 90.9949L163.137 76.8528L148.995 90.9949Z" fill="black"/>
<path d="M191.421 48.5684L205.564 62.7107L219.706 48.5686L205.564 34.4263L191.421 48.5684Z" fill="black"/>
<path d="M78.2844 161.706L92.4264 175.848L106.569 161.706L92.4264 147.564L78.2844 161.706Z" fill="black"/>
<path d="M22.1421 217.711L36.2842 231.853L50.4264 217.711L36.2842 203.569L22.1421 217.711Z" fill="black"/>
<path d="M106.569 133.421L120.711 147.563L134.853 133.421L120.711 119.279L106.569 133.421Z" fill="black"/>
<path d="M50.4264 189.427L64.5686 203.569L78.7106 189.426L64.5685 175.284L50.4264 189.427Z" fill="black"/>
<path d="M134.853 105.137L148.995 119.279L163.137 105.137L148.995 90.9949L134.853 105.137Z" fill="black"/>
<path d="M177.279 62.7107L191.421 76.8528L205.564 62.7107L191.421 48.5684L177.279 62.7107Z" fill="black"/>
<path d="M163.137 76.8528L177.279 90.9949L191.421 76.8528L177.279 62.7107L163.137 76.8528Z" fill="black"/>
<path d="M205.564 34.4263L219.706 48.5686L233.848 34.4263L219.706 20.2842L205.564 34.4263Z" fill="black"/>
<path d="M220 40C231.046 40 240 31.0457 240 20C240 8.95432 231.046 8.35087e-06 220 7.86805e-06C208.954 7.38523e-06 200 8.95431 200 20C200 31.0457 208.954 40 220 40Z" fill="black"/>
</svg>
